<svg xmlns="http://www.w3.org/2000/svg" xmlns:xlink="http://www.w3.org/1999/xlink" viewBox="0,0,256,256" width="48px" height="48px" fill-rule="nonzero"><g fill="#ffffff" fill-rule="nonzero" stroke="none" stroke-width="1" stroke-linecap="butt" stroke-linejoin="miter" stroke-miterlimit="10" stroke-dasharray="" stroke-dashoffset="0" font-family="none" font-weight="none" font-size="none" text-anchor="none" style="mix-blend-mode: normal"><g transform="scale(10.66667,10.66667)"><path d="M21.991,5c0,-1.1 -0.89,-2 -1.99,-2h-16c-1.1,0 -2,0.9 -2,2v12c0,1.1 0.9,2 2,2h14l2.789,2.789c0.447,0.447 1.21,0.13 1.21,-0.502zM13,16h-5c-0.552,0 -1,-0.448 -1,-1c0,-0.552 0.448,-1 1,-1h5c0.552,0 1,0.448 1,1c0,0.552 -0.448,1 -1,1zM16,12h-8c-0.552,0 -1,-0.448 -1,-1c0,-0.552 0.448,-1 1,-1h8c0.552,0 1,0.448 1,1c0,0.552 -0.448,1 -1,1zM16,8h-8c-0.552,0 -1,-0.448 -1,-1c0,-0.552 0.448,-1 1,-1h8c0.552,0 1,0.448 1,1c0,0.552 -0.448,1 -1,1z"></path></g></g></svg>