<?xml version="1.0" encoding="utf-8"?>
<!-- Generator: Adobe Illustrator 27.5.0, SVG Export Plug-In . SVG Version: 6.00 Build 0)  -->
<svg version="1.1" id="Layer_1" xmlns="http://www.w3.org/2000/svg" xmlns:xlink="http://www.w3.org/1999/xlink" x="0px" y="0px"
	 viewBox="0 0 64 64" style="enable-background:new 0 0 64 64;" xml:space="preserve">
<style type="text/css">
	.st0{fill:#151515;}
	.st1{fill:#FFFFFF;}
</style>
<rect class="st0" width="64" height="64"/>
<g>
	<g>
		<path class="st1" d="M13.1,54.9v-5.4h2.9c0.8,0,1.2-0.5,1.2-1.5V20h5.6v29.2c0,1.7-0.4,3.1-1.3,4.1c-0.9,1-2.1,1.5-3.6,1.5H13.1z
			 M20.1,17.1c-1,0-1.9-0.4-2.6-1.1c-0.7-0.7-1-1.7-1-2.9s0.3-2.2,1-2.9s1.5-1.1,2.6-1.1c1,0,1.9,0.4,2.6,1.1c0.7,0.7,1,1.7,1,2.9
			s-0.3,2.2-1,2.9C22,16.8,21.1,17.1,20.1,17.1z"/>
		<path class="st1" d="M40.3,45.6c-2.2,0-4.1-0.5-5.8-1.6s-3-2.5-3.9-4.5c-0.9-1.9-1.4-4.2-1.4-6.8v-0.6c0-2.6,0.5-4.9,1.4-6.8
			c0.9-1.9,2.2-3.4,3.9-4.5s3.6-1.6,5.8-1.6c2.2,0,4,0.5,5.6,1.6s2.8,2.6,3.7,4.5s1.3,4.1,1.3,6.7v2.2h-16c0.1,1.7,0.6,3.1,1.7,4.2
			c1.1,1.1,2.4,1.6,3.9,1.6c1.6,0,2.7-0.4,3.5-1.2c0.7-0.8,1.3-1.6,1.7-2.6l4.6,2.7c-0.4,0.9-1,1.8-1.8,2.8c-0.8,1-1.8,1.9-3.1,2.6
			C43.9,45.2,42.3,45.6,40.3,45.6z M34.9,29.6h10.3c-0.1-1.4-0.6-2.6-1.5-3.5s-2.1-1.3-3.5-1.3c-1.5,0-2.7,0.4-3.6,1.3
			C35.6,27,35.1,28.2,34.9,29.6z"/>
	</g>
</g>
</svg>
